#N canvas 445 132 867 597 10;
#X obj 243 30 inlet;
#X obj 235 57 bng 15 250 50 0 empty empty empty 17 7 0 10 -262144 -1
-1;
#X obj 90 33 pix_buffer winframe 1;
#X obj 454 197 pix_buffer_write winframe;
#X obj 383 405 pix_buffer_read winframe;
#X obj 346 507 pix_texture;
#X obj 347 534 rectangle 5.333 4;
#X obj 383 376 gemhead 80;
#X obj 414 346 tgl 15 0 empty empty empty 17 7 0 10 -262144 -1 -1 0
1;
#X msg 554 153 0;
#X msg 517 368 0;
#X obj 608 126 tgl 15 0 empty empty empty 17 7 0 10 -262144 -1 -1 0
1;
#X obj 622 160 cnv 15 200 300 empty empty empty 20 12 0 14 -228856
-66577 0;
#X obj 641 277 gemhead 60;
#X obj 640 342 separator;
#X obj 637 438 rectangle 5.33 4;
#X obj 640 411 colorRGB;
#X obj 773 359 line;
#X msg 791 309 1;
#X obj 635 382 alpha;
#X msg 745 311 0 100;
#X obj 702 174 t b b b b;
#X msg 779 212 1;
#X msg 689 234 0;
#X obj 689 202 delay 100;
#X obj 689 106 bng 15 250 50 0 empty empty empty 17 7 0 10 -262144
-1 -1;
#X obj 359 114 delay 100;
#X obj 426 226 t b b b;
#X msg 460 303 1, f 2;
#X obj 344 238 r init;
#X msg 353 303 0;
#X obj 321 478 t a a;
#X obj 259 197 time . . .;
#X obj 167 179 bng 15 250 50 0 empty empty empty 17 7 0 10 -262144
-1 -1;
#X obj 156 377 pix_writer 0 0 800 600;
#X obj 607 66 r init;
#X msg 612 102 0;
#X obj 194 236 date . . .;
#X obj 188 298 pack f f f f f f;
#X obj 156 201 t b b b b;
#X obj 386 441 pix_flip;
#X obj 262 55 t b b b b b;
#X obj 29 533 print 1;
#X obj 97 532 print 2;
#X msg 183 342 file \$1\$2\$3\$4\$5\$6- 99;
#X msg 33 448 python postit_.py \$1\$2\$3\$4\$5\$6-00000.jpg;
#X obj 49 501 ggee/shell;
#X obj 42 425 list;
#X obj 59 362 t b l;
#X obj 39 393 delay 3000;
#X obj 38 476 spigot;
#X obj 100 476 r post_online;
#X obj 365 267 delay 6000;
#X obj 377 168 delay 200;
#X obj 58 339 spigot;
#X obj 106 339 tgl 15 0 empty empty empty 17 7 0 10 -262144 -1 -1 1
1;
#X text 685 61 make a flash!;
#X obj 481 484 pix_image;
#X obj 479 451 gemhead;
#X msg 566 500 open;
#X obj 456 29 inlet;
#X obj 497 97 r;
#X connect 0 0 41 0;
#X connect 1 0 41 0;
#X connect 4 0 40 0;
#X connect 5 0 6 0;
#X connect 7 0 4 0;
#X connect 8 0 7 0;
#X connect 9 0 3 1;
#X connect 10 0 4 1;
#X connect 11 0 13 0;
#X connect 13 0 14 0;
#X connect 14 0 19 0;
#X connect 16 0 15 0;
#X connect 17 0 16 4;
#X connect 18 0 17 0;
#X connect 19 0 16 0;
#X connect 20 0 17 0;
#X connect 21 0 24 0;
#X connect 21 1 20 0;
#X connect 21 2 18 0;
#X connect 21 3 22 0;
#X connect 22 0 13 0;
#X connect 23 0 13 0;
#X connect 24 0 23 0;
#X connect 25 0 21 0;
#X connect 26 0 9 0;
#X connect 27 0 52 0;
#X connect 27 1 28 0;
#X connect 27 2 10 0;
#X connect 28 0 8 0;
#X connect 29 0 30 0;
#X connect 30 0 8 0;
#X connect 31 0 34 0;
#X connect 31 1 5 0;
#X connect 32 0 38 3;
#X connect 32 1 38 4;
#X connect 32 2 38 5;
#X connect 33 0 39 0;
#X connect 35 0 36 0;
#X connect 36 0 11 0;
#X connect 37 0 38 0;
#X connect 37 1 38 1;
#X connect 37 2 38 2;
#X connect 38 0 44 0;
#X connect 38 0 54 0;
#X connect 39 0 34 0;
#X connect 39 2 37 0;
#X connect 39 3 32 0;
#X connect 40 0 31 0;
#X connect 41 1 33 0;
#X connect 41 2 53 0;
#X connect 41 3 26 0;
#X connect 41 4 21 0;
#X connect 44 0 34 0;
#X connect 45 0 50 0;
#X connect 46 0 42 0;
#X connect 46 1 43 0;
#X connect 47 0 45 0;
#X connect 48 0 49 0;
#X connect 48 1 47 1;
#X connect 49 0 47 0;
#X connect 50 0 46 0;
#X connect 51 0 50 1;
#X connect 52 0 30 0;
#X connect 53 0 27 0;
#X connect 54 0 48 0;
#X connect 55 0 54 1;
#X connect 57 0 5 0;
#X connect 58 0 57 0;
#X connect 60 0 3 0;
