#N canvas 1 80 422 354 10;
#N canvas 153 276 647 354 kinect 0;
#X obj 304 93 gemhead;
#N canvas 279 344 844 360 properties 0;
#X obj 13 46 cnv 15 140 220 empty empty empty 20 12 0 14 -204800 -66577
0;
#X msg 18 230 led \$1;
#X obj 18 111 vradio 15 1 0 6 empty empty empty 0 -8 0 10 -262144 -1
-1 3;
#X floatatom 18 207 5 0 0 0 - - -, f 5;
#X msg 95 230 angle \$1;
#X obj 95 74 vsl 15 128 -30 30 0 0 empty empty empty 0 -9 0 10 -262144
-1 -1 4380 1;
#X floatatom 95 211 5 0 0 0 - - -, f 5;
#X msg 45 49 0;
#X text 34 125 GREEN;
#X text 35 109 OFF;
#X text 34 141 RED;
#X text 34 156 YELLOW;
#X text 34 171 BLINK_GR;
#X text 34 185 BLINK_R_Y;
#X obj 168 48 cnv 15 320 120 empty empty empty 20 12 0 14 -4034 -66577
0;
#X obj 179 85 vradio 15 1 0 2 empty empty empty 0 -8 0 10 -262144 -1
-1 0;
#X floatatom 179 120 5 0 0 0 - - -, f 5;
#X obj 244 86 vradio 15 1 0 2 empty empty empty 0 -8 0 10 -262144 -1
-1 1;
#X floatatom 244 121 5 0 0 0 - - -, f 5;
#X msg 179 141 rgb \$1;
#X msg 244 142 depth \$1;
#X text 171 48 activate/deactivate streams;
#X text 173 62 save cpu power by just activating necessary streams!
;
#X obj 496 49 cnv 15 315 120 empty empty empty 20 12 0 14 -232576 -66577
0;
#X obj 499 88 vradio 15 1 0 2 empty empty empty 0 -8 0 10 -262144 -1
-1 0;
#X floatatom 499 123 5 0 0 0 - - -, f 5;
#X msg 499 143 depth_output \$1;
#X text 646 111 b = 0 \, a = 0;
#X text 21 4 properties for pix_freenect;
#X text 517 26 DEPTH OUTPUT;
#X text 190 27 STREAMS;
#X text 36 27 LED \, ANGLE;
#X text 645 98 r->3 msbits \, g ->8 lsbits;
#X text 518 101 Raw YUV (2 bytes) |;
#X text 518 86 Raw RGBA -> 11 bit output in r&g channel;
#X obj 168 192 cnv 15 520 120 empty empty empty 20 12 0 14 -261682
-66577 0;
#X obj 180 215 vradio 15 1 0 3 empty empty empty 0 -8 0 10 -262144
-1 -1 1;
#X floatatom 180 264 5 0 0 0 - - -, f 5;
#X obj 368 226 vradio 15 1 0 2 empty empty empty 0 -8 0 10 -262144
-1 -1 0;
#X floatatom 368 261 5 0 0 0 - - -, f 5;
#X msg 180 285 depth_mode \$1;
#X text 201 243 11bit raw;
#X text 503 52 set depth output colorspace;
#X text 171 195 set output formats;
#X text 201 227 mm aligned to rgb (16 bit);
#X text 201 213 mm unaligned (16 bit);
#X msg 368 282 video_mode \$1;
#X text 388 224 RGB;
#X text 387 240 IR;
#X obj 18 256 s \$0-prop;
#X obj 179 166 s \$0-prop;
#X obj 499 169 s \$0-prop;
#X obj 180 314 s \$0-prop;
#X obj 484 220 vradio 15 1 0 3 empty empty empty 0 -8 0 10 -262144
-1 -1 1;
#X floatatom 484 268 5 0 0 0 - - -, f 5;
#X msg 484 287 resolution \$1;
#X text 504 234 MEDIUM (default);
#X text 481 197 RGB RESOLUTION;
#X text 504 249 HIGH (restart rgb stream!);
#X text 504 219 LOW (not displaying correctly);
#X msg 106 314 1;
#X text 444 313 HIGH Resolution IR works just if depth stream is shut
down!!;
#X obj 107 288 r B;
#X msg 80 48 20;
#X text 105 49 ground;
#X obj 115 24 r CamAngle;
#X obj -18 -14 r IsConnected;
#X connect 1 0 49 0;
#X connect 2 0 3 0;
#X connect 3 0 1 0;
#X connect 4 0 49 0;
#X connect 5 0 6 0;
#X connect 6 0 4 0;
#X connect 7 0 5 0;
#X connect 15 0 16 0;
#X connect 16 0 19 0;
#X connect 17 0 18 0;
#X connect 18 0 20 0;
#X connect 19 0 50 0;
#X connect 20 0 50 0;
#X connect 24 0 25 0;
#X connect 25 0 26 0;
#X connect 26 0 51 0;
#X connect 36 0 37 0;
#X connect 37 0 40 0;
#X connect 38 0 39 0;
#X connect 39 0 46 0;
#X connect 40 0 52 0;
#X connect 46 0 52 0;
#X connect 53 0 54 0;
#X connect 54 0 55 0;
#X connect 55 0 52 0;
#X connect 60 0 36 0;
#X connect 62 0 60 0;
#X connect 63 0 5 0;
#X connect 65 0 5 0;
#X connect 66 0 2 0;
#X restore 2 14 pd properties;
#X text 312 74 gemhead for rgb;
#X text 432 73 and for depth;
#X text 319 155 rgb;
#X msg 242 125 info;
#X obj 240 35 r \$0-prop;
#X obj 486 208 tgl 15 0 empty empty mode 17 7 0 10 -262144 -1 -1 1
1;
#X obj 422 211 tgl 15 0 empty empty on/off 17 7 0 10 -262144 -1 -1
1 1;
#X obj 491 249 nbx 5 14 -1e+37 1e+37 0 0 empty empty hi_thresh 0 -8
0 10 -262144 -1 -1 6749.44 256;
#X obj 401 272 pix_depth2rgba 5000 100;
#X obj 555 247 nbx 5 14 -1e+37 1e+37 0 0 empty empty lo_thresh 0 -8
0 10 -262144 -1 -1 890.353 256;
#N canvas 438 404 569 230 thresholds 0;
#X obj 69 177 outlet;
#X msg 31 63 lo_thresh \$1;
#X msg 69 109 hi_thresh \$1;
#X floatatom 31 46 5 0 0 0 - - -, f 5;
#X floatatom 69 92 5 0 0 0 - - -, f 5;
#X text 72 17 low threshold default to 10.1;
#X text 109 89 same as third inlet \, set by arg \, default 8000;
#X text 162 186 pixel which are out of bounds are zeroes;
#X text 163 149 this normalizes the color gradient from lo_thresh to
hi_thresh;
#X text 89 33 same as fourth inlet \, set by second creation arg;
#X connect 1 0 0 0;
#X connect 2 0 0 0;
#X connect 3 0 1 0;
#X connect 4 0 2 0;
#X restore 299 238 pd thresholds;
#X obj 304 54 tgl 15 0 empty empty empty 17 7 0 10 -262144 -1 -1 1
1;
#X obj 425 55 tgl 15 0 empty empty empty 17 7 0 10 -262144 -1 -1 1
1;
#X text 409 154 Depth;
#X obj 399 296 s Dimg;
#X obj 304 176 s RGBimg;
#X text 226 106 get serial;
#X obj 425 93 gemhead 52;
#X msg 482 179 1;
#X msg 555 155 4000;
#X msg 598 155 2000;
#X obj 421 11 tgl 15 0 empty empty empty 17 7 0 10 -262144 -1 -1 1
1;
#X msg 579 182 0;
#X msg 538 183 10000;
#X obj 559 64 r B;
#X obj 168 32 vsl 15 250 0 10000 0 0 empty maxDist-r empty 0 -9 0 10
-262144 -1 -1 16806 1;
#X obj 199 33 vsl 15 250 0 10000 0 0 empty minDist-r empty 0 -9 0 10
-262144 -1 -1 2217 1;
#X obj 97 90 vsl 15 128 -30 30 0 0 empty empty empty 0 -9 0 10 -262144
-1 -1 0 1;
#X msg 47 65 0;
#X msg 82 64 20;
#X text 107 65 ground;
#X obj 64 246 s CamAngle;
#X obj 232 298 nbx 5 14 -1e+37 1e+37 0 0 empty minDist-r empty 0 -8
0 10 -262144 -1 -1 890.353 256;
#X obj 170 298 nbx 5 14 -1e+37 1e+37 0 0 empty maxDist-r empty 0 -8
0 10 -262144 -1 -1 6749.44 256;
#X obj 304 133 pix_freenect 0 1 1;
#X connect 0 0 36 0;
#X connect 5 0 36 0;
#X connect 6 0 36 0;
#X connect 7 0 10 1;
#X connect 8 0 10 0;
#X connect 9 0 10 2;
#X connect 10 0 16 0;
#X connect 11 0 10 3;
#X connect 12 0 10 0;
#X connect 13 0 0 0;
#X connect 14 0 19 0;
#X connect 19 0 36 1;
#X connect 20 0 8 0;
#X connect 20 0 7 0;
#X connect 21 0 9 0;
#X connect 22 0 11 0;
#X connect 23 0 13 0;
#X connect 23 0 14 0;
#X connect 24 0 11 0;
#X connect 25 0 9 0;
#X connect 26 0 25 0;
#X connect 26 0 24 0;
#X connect 26 0 20 0;
#X connect 27 0 9 0;
#X connect 28 0 11 0;
#X connect 29 0 33 0;
#X connect 30 0 29 0;
#X connect 31 0 29 0;
#X connect 36 0 17 0;
#X connect 36 1 10 0;
#X restore 24 49 pd kinect;
#N canvas 509 115 439 592 detection 0;
#X obj 54 469 pix_texture;
#X obj 54 538 rectangle 5.33 4;
#X obj 53 45 r RGBimg;
#X floatatom 232 147 5 0 1 1 pass - -, f 5;
#X floatatom 247 167 5 0 1 1 other - -, f 5;
#X obj 218 241 pix_alpha;
#X msg 261 192 1 1 1;
#X obj 54 157 alpha;
#X msg 326 105 \$1 \$1 \$1;
#X msg 276 216 0.01 0.01 0.01;
#X floatatom 327 76 5 0 0 0 - - -, f 5;
#X obj 54 284 pix_mask;
#X obj 121 14 r Dimg;
#X floatatom 168 479 5 0 0 0 - - -, f 5;
#X obj 121 135 pix_gain;
#X obj 121 38 pix_gray;
#X msg 176 76 4;
#X obj 150 201 pix_rgba;
#X obj 55 359 pix_flip;
#X msg 131 332 horizontal;
#X obj 54 506 translateXYZ 0 0 0.65;
#X floatatom 198 414 5 0 0 0 - - -, f 5;
#X msg 134 354 none;
#X obj 176 55 r B;
#X floatatom 175 99 5 0 0 0 - - -, f 5;
#X obj 143 306 sel 1, f 7;
#X obj 228 312 r H-Flip;
#X obj 196 385 r DelTime;
#X floatatom 156 442 5 0 0 0 - - -, f 5;
#X obj 54 444 pix_delay 2000;
#X obj 200 441 * 30;
#X connect 0 0 20 0;
#X connect 2 0 7 0;
#X connect 3 0 5 1;
#X connect 4 0 5 2;
#X connect 5 0 11 1;
#X connect 6 0 5 3;
#X connect 7 0 11 0;
#X connect 8 0 5 3;
#X connect 9 0 5 4;
#X connect 10 0 8 0;
#X connect 11 0 18 0;
#X connect 12 0 15 0;
#X connect 13 0 20 3;
#X connect 14 0 17 0;
#X connect 15 0 14 0;
#X connect 16 0 24 0;
#X connect 17 0 5 0;
#X connect 18 0 29 0;
#X connect 19 0 18 0;
#X connect 20 0 1 0;
#X connect 21 0 30 0;
#X connect 22 0 18 0;
#X connect 23 0 16 0;
#X connect 24 0 14 1;
#X connect 25 0 19 0;
#X connect 25 1 22 0;
#X connect 26 0 25 0;
#X connect 27 0 21 0;
#X connect 28 0 29 1;
#X connect 29 0 0 0;
#X connect 30 0 28 0;
#X restore 24 72 pd detection;
#N canvas 47 507 270 235 init 1;
#X obj 55 11 loadbang;
#X obj 65 44 s B;
#X obj 129 11 zexy;
#X obj 11 8 inlet;
#X obj 27 199 gemwin;
#X msg 64 165 0 \, destroy;
#X obj 53 76 delay 2000;
#X msg 39 135 dimen 1024 768 \, fps 30 \, create \, 1;
#X msg 22 107 dimen 800 600 \, fps 30 \, create \, 1;
#X connect 0 0 1 0;
#X connect 0 0 6 0;
#X connect 3 0 1 0;
#X connect 3 0 8 0;
#X connect 5 0 4 0;
#X connect 7 0 4 0;
#X connect 8 0 4 0;
#X restore 24 116 pd init;
#X obj 24 95 bng 15 250 50 0 empty empty empty 17 7 0 10 -262144 -1
-1;
#N canvas 709 103 614 639 cenarios 0;
#X obj 287 348 textfile;
#X msg 287 112 read cenarios.txt \, rewind;
#X obj 18 217 pix_texture;
#X obj 18 240 rectangle 5.33 4;
#X obj 18 27 tgl 15 0 empty empty empty 17 7 0 10 -262144 -1 -1 0 1
;
#X obj 8 529 pix_texture;
#X obj 57 435 tgl 15 0 empty empty empty 17 7 0 10 -262144 -1 -1 0
1;
#X floatatom 131 390 5 0 0 0 - - -, f 5;
#X obj 8 296 tgl 15 0 empty empty empty 17 7 0 10 -262144 -1 -1 0 1
;
#X floatatom 90 390 5 0 0 0 - - -, f 5;
#X obj 8 436 alpha;
#X obj 18 47 gemhead 49;
#X floatatom 49 390 5 0 0 0 - - -, f 5;
#X obj 18 102 translateXYZ 0 0 0;
#X floatatom 107 67 5 0 0 0 - - -, f 5;
#X obj 49 368 / 100;
#X floatatom 49 349 5 0 0 0 - - -, f 5;
#X obj 90 368 / 100;
#X floatatom 90 349 5 0 0 0 - - -, f 5;
#X obj 8 508 pix_image ./Cenarios/front_canyon.tif;
#X obj 20 458 r FrontImage;
#X obj 38 131 r BackImage;
#X text 38 26 Background;
#X text 25 296 Foreground;
#X obj 18 194 pix_image ./Cenarios/At-Grand-Canyon.jpg;
#X obj 292 458 t a b;
#X obj 319 494 tgl 15 0 empty empty empty 17 7 0 10 -262144 -1 -1 0
1;
#X obj 292 523 demux;
#X obj 319 566 s BackImage;
#X obj 292 601 s FrontImage;
#X floatatom 83 571 5 0 0 0 - - -, f 5;
#X floatatom 45 571 5 0 0 0 - - -, f 5;
#X obj 8 410 translateXYZ 0 0 1;
#X obj 8 590 rectangle 4 3, f 12;
#X msg 350 471 0;
#X obj 367 173 t b b b;
#X obj 368 145 bng 15 250 50 0 empty empty empty 17 7 0 10 -262144
-1 -1;
#X obj 470 209 + 1;
#X obj 470 187 f -1;
#X msg 509 167 -1;
#X obj 470 231 mod 8;
#X obj 372 312 sel 7;
#N canvas 1 54 450 300 CenariosTamanho 0;
#X obj 313 138 + 1;
#X obj 313 116 f -1;
#X obj 174 227 textfile;
#X msg 352 96 -1;
#X msg 117 143 read cenarios.txt \, rewind;
#X obj 273 73 metro 1;
#X msg 221 259 0;
#X obj 274 181 b;
#X obj 172 184 bng 15 250 50 0 empty empty empty 17 7 0 10 -262144
-1 -1;
#X obj 273 46 t b b b;
#X obj 273 14 inlet;
#X obj 323 216 outlet;
#X connect 0 0 7 0;
#X connect 0 0 1 1;
#X connect 0 0 11 0;
#X connect 1 0 0 0;
#X connect 2 1 6 0;
#X connect 3 0 1 1;
#X connect 4 0 2 0;
#X connect 5 0 1 0;
#X connect 6 0 5 0;
#X connect 7 0 2 0;
#X connect 8 0 2 0;
#X connect 9 0 5 0;
#X connect 9 1 3 0;
#X connect 9 2 4 0;
#X connect 10 0 9 0;
#X restore 433 317 pd CenariosTamanho;
#X obj 432 291 bng 15 250 50 0 empty empty empty 17 7 0 10 -262144
-1 -1;
#X floatatom 433 341 5 0 0 0 - - -, f 5;
#X obj 433 360 t f f;
#X obj 433 381 - 1;
#X obj 363 79 metro 120000;
#X obj 366 45 tgl 15 0 empty empty empty 17 7 0 10 -262144 -1 -1 1
1;
#X obj 284 28 loadbang;
#X floatatom 470 256 5 0 0 0 - - -, f 5;
#X obj 391 143 r cenarioBang;
#X obj 289 376 t b a, f 6;
#X obj 38 154 cyclone/prepend open;
#X obj 20 482 cyclone/prepend open;
#X obj 8 319 gemhead 51;
#X obj 433 268 r B;
#X connect 0 0 52 0;
#X connect 1 0 0 0;
#X connect 2 0 3 0;
#X connect 4 0 11 0;
#X connect 5 0 33 0;
#X connect 6 0 10 1;
#X connect 7 0 32 3;
#X connect 8 0 55 0;
#X connect 9 0 32 2;
#X connect 10 0 19 0;
#X connect 11 0 13 0;
#X connect 12 0 32 1;
#X connect 13 0 24 0;
#X connect 14 0 13 1;
#X connect 15 0 12 0;
#X connect 16 0 15 0;
#X connect 17 0 9 0;
#X connect 18 0 17 0;
#X connect 19 0 5 0;
#X connect 20 0 54 0;
#X connect 21 0 53 0;
#X connect 24 0 2 0;
#X connect 25 0 27 0;
#X connect 25 1 26 0;
#X connect 26 0 27 1;
#X connect 27 0 29 0;
#X connect 27 1 28 0;
#X connect 30 0 33 2;
#X connect 31 0 33 1;
#X connect 32 0 10 0;
#X connect 34 0 26 0;
#X connect 35 0 0 0;
#X connect 35 1 0 0;
#X connect 36 0 35 0;
#X connect 37 0 40 0;
#X connect 38 0 37 0;
#X connect 39 0 38 1;
#X connect 40 0 38 1;
#X connect 40 0 41 0;
#X connect 40 0 50 0;
#X connect 41 0 1 0;
#X connect 42 0 44 0;
#X connect 43 0 42 0;
#X connect 44 0 45 0;
#X connect 45 0 46 0;
#X connect 45 1 40 1;
#X connect 46 0 41 1;
#X connect 47 0 36 0;
#X connect 48 0 47 0;
#X connect 49 0 48 0;
#X connect 49 0 1 0;
#X connect 51 0 36 0;
#X connect 52 0 38 0;
#X connect 52 1 25 0;
#X connect 53 0 24 0;
#X connect 54 0 19 0;
#X connect 55 0 32 0;
#X connect 56 0 43 0;
#X restore 24 26 pd cenarios;
#X obj 224 30 vsl 50 250 0 10000 0 0 minDist-r minDist-android empty
0 -9 0 10 -262144 -1 -1 2217 1;
#X obj 120 29 vsl 50 250 0 10000 0 0 maxDist-r maxDist-android empty
0 -9 0 10 -262144 -1 -1 16806 1;
#X obj 222 290 nbx 5 14 -1e+37 1e+37 0 0 empty minDist-r empty 0 -8
0 10 -262144 -1 -1 890.353 256;
#X obj 121 290 nbx 5 14 -1e+37 1e+37 0 0 empty maxDist-r empty 0 -8
0 10 -262144 -1 -1 6749.44 256;
#X text 119 308 MaxD;
#X text 223 308 MinD;
#X obj 329 15 bng 50 250 50 0 cenarioBang cenarioBang-android bang_scene
0 7 0 10 -262144 -1 -1;
#X obj 328 80 vsl 50 200 -30 30 0 0 CamAngle CamAngle-android empty
0 -9 0 10 -262144 -1 -1 6864 1;
#X obj 327 290 nbx 5 14 -1e+37 1e+37 0 0 empty CamAngle empty 0 -8
0 10 -262144 -1 -1 -9.30561 256;
#X text 326 307 CamAngle;
#N canvas 1 301 450 300 connections 0;
#X obj 32 11 netreceive 7000;
#X obj 32 295 s maxDist-android;
#X obj 54 256 s minDist-android;
#X obj 98 225 s CamAngle-android;
#X obj 198 195 s cenarioBang-android;
#X floatatom 119 63 5 0 0 0 - - -, f 5;
#X floatatom 42 195 5 0 0 0 - - -, f 5;
#X obj 191 56 > 0;
#X floatatom 349 110 5 0 0 0 - - -, f 5;
#X floatatom 193 25 5 0 0 0 - - -, f 5;
#X obj 191 78 * 3;
#X obj 191 101 s IsConnected;
#X obj 269 227 s DelTime-ctl;
#X obj 32 136 route maxDist-android minDist-android CamAngle-android
cenarioBang-android DelTime-ctl snap-android;
#X obj 361 186 s snap;
#X obj 401 155 bng 15 250 50 0 empty empty empty 17 7 0 10 -262144
-1 -1;
#X connect 0 0 13 0;
#X connect 0 1 5 0;
#X connect 0 1 7 0;
#X connect 7 0 10 0;
#X connect 9 0 7 0;
#X connect 10 0 11 0;
#X connect 13 0 1 0;
#X connect 13 0 6 0;
#X connect 13 1 2 0;
#X connect 13 2 3 0;
#X connect 13 3 4 0;
#X connect 13 4 12 0;
#X connect 13 5 14 0;
#X connect 15 0 14 0;
#X restore 22 141 pd connections;
#X obj 25 248 s H-Flip;
#X obj 25 228 tgl 15 0 empty empty empty 17 7 0 10 -262144 -1 -1 0
1;
#X obj 26 203 s DelTime;
#X floatatom 26 177 5 0 0 0 - DelTime-ctl -, f 5;
#N canvas 50 121 449 595 snap 0;
#X obj 168 237 spigot;
#X obj 220 212 tgl 15 0 empty empty empty 0 -6 0 8 -262144 -1 -1 0
1;
#X obj 137 217 t a b;
#X obj 168 257 t b b;
#X msg 241 250 0;
#X obj 133 32 gemhead 79;
#X obj 186 554 pix_writer;
#X obj 209 335 bng 15 250 50 0 empty empty empty 17 7 0 10 -262144
-1 -1;
#X obj 137 286 pix_snap 0 0 800 600;
#X msg 277 524 file ./oni_flash 99;
#X text 227 335 WRITE!;
#X obj 278 498 r B;
#X obj 210 84 r snap;
#X msg 208 139 1, f 1;
#N canvas 1 128 342 285 show_check_snap 0;
#X obj 41 144 pix_texture;
#X obj 41 213 rectangle 5.33 4;
#X obj 41 181 translateXYZ 0 0 0.65;
#X floatatom 182 210 5 0 0 0 - - -, f 5;
#X floatatom 227 209 5 0 0 0 - - -, f 5;
#X floatatom 181 182 5 0 0 0 - - -, f 5;
#X floatatom 226 181 5 0 0 0 - - -, f 5;
#X floatatom 266 178 5 0 0 0 - - -, f 5;
#X obj 94 109 spigot;
#X obj 143 108 tgl 15 0 empty empty empty 17 7 0 10 -262144 -1 -1 0
1;
#X obj 64 41 inlet img;
#X obj 204 43 inlet onOff;
#X connect 0 0 2 0;
#X connect 2 0 1 0;
#X connect 3 0 1 1;
#X connect 4 0 1 2;
#X connect 5 0 2 1;
#X connect 6 0 2 2;
#X connect 7 0 2 3;
#X connect 8 0 0 0;
#X connect 9 0 8 1;
#X connect 10 0 8 0;
#X connect 11 0 9 0;
#X restore 14 550 pd show_check_snap;
#X obj 115 528 tgl 15 0 empty empty empty 17 7 0 10 -262144 -1 -1 0
1;
#X text 222 196 SNAP!;
#X obj 363 388 pack f f f;
#X obj 353 344 time - - -;
#X obj 213 114 t b b;
#X msg 275 477 file ./oni_\$1-\$2-\$3- 99;
#X obj 7 324 gemhead 79;
#X obj 9 365 alpha;
#X obj 10 443 pix_image ./Cenarios/casasualbero-front.png;
#X obj 98 481 pix_add;
#X obj 14 291 tgl 15 0 empty empty empty 17 7 0 10 -262144 -1 -1 1
1;
#X obj 133 7 tgl 15 0 empty empty empty 17 7 0 10 -262144 -1 -1 1 1
;
#X connect 0 0 3 0;
#X connect 1 0 0 1;
#X connect 2 0 8 0;
#X connect 2 1 0 0;
#X connect 3 0 8 0;
#X connect 3 1 4 0;
#X connect 3 1 7 0;
#X connect 4 0 1 0;
#X connect 5 0 2 0;
#X connect 7 0 6 0;
#X connect 8 0 24 0;
#X connect 9 0 6 0;
#X connect 11 0 9 0;
#X connect 12 0 19 0;
#X connect 13 0 1 0;
#X connect 15 0 14 1;
#X connect 17 0 20 0;
#X connect 18 0 17 0;
#X connect 18 1 17 1;
#X connect 18 2 17 2;
#X connect 19 0 13 0;
#X connect 19 1 18 0;
#X connect 20 0 6 0;
#X connect 21 0 22 0;
#X connect 22 0 23 0;
#X connect 23 0 24 1;
#X connect 24 0 6 0;
#X connect 24 0 14 0;
#X connect 25 0 21 0;
#X connect 26 0 5 0;
#X restore 26 294 pd snap;
#X connect 3 0 2 0;
#X connect 17 0 16 0;
#X connect 19 0 18 0;
