#N canvas 147 254 490 329 10;
#N canvas 1 200 647 354 kinect 0;
#X obj 304 93 gemhead;
#N canvas 285 341 844 360 properties 0;
#X obj 13 46 cnv 15 140 220 empty empty empty 20 12 0 14 -204800 -66577
0;
#X msg 18 230 led \$1;
#X obj 18 111 vradio 15 1 0 6 empty empty empty 0 -8 0 10 -262144 -1
-1 0;
#X floatatom 18 207 5 0 0 0 - - -, f 5;
#X msg 95 230 angle \$1;
#X obj 95 74 vsl 15 128 -30 30 0 0 empty empty empty 0 -9 0 10 -262144
-1 -1 6083 1;
#X floatatom 95 211 5 0 0 0 - - -, f 5;
#X msg 45 49 0;
#X text 34 125 GREEN;
#X text 35 109 OFF;
#X text 34 141 RED;
#X text 34 156 YELLOW;
#X text 34 171 BLINK_GR;
#X text 34 185 BLINK_R_Y;
#X obj 168 48 cnv 15 320 120 empty empty empty 20 12 0 14 -4034 -66577
0;
#X obj 179 85 vradio 15 1 0 2 empty empty empty 0 -8 0 10 -262144 -1
-1 0;
#X floatatom 179 120 5 0 0 0 - - -, f 5;
#X obj 244 86 vradio 15 1 0 2 empty empty empty 0 -8 0 10 -262144 -1
-1 1;
#X floatatom 244 121 5 0 0 0 - - -, f 5;
#X msg 179 141 rgb \$1;
#X msg 244 142 depth \$1;
#X text 171 48 activate/deactivate streams;
#X text 173 62 save cpu power by just activating necessary streams!
;
#X obj 496 49 cnv 15 315 120 empty empty empty 20 12 0 14 -232576 -66577
0;
#X obj 499 88 vradio 15 1 0 2 empty empty empty 0 -8 0 10 -262144 -1
-1 0;
#X floatatom 499 123 5 0 0 0 - - -, f 5;
#X msg 499 143 depth_output \$1;
#X text 646 111 b = 0 \, a = 0;
#X text 21 4 properties for pix_freenect;
#X text 517 26 DEPTH OUTPUT;
#X text 190 27 STREAMS;
#X text 36 27 LED \, ANGLE;
#X text 645 98 r->3 msbits \, g ->8 lsbits;
#X text 518 101 Raw YUV (2 bytes) |;
#X text 518 86 Raw RGBA -> 11 bit output in r&g channel;
#X obj 168 192 cnv 15 520 120 empty empty empty 20 12 0 14 -261682
-66577 0;
#X obj 180 215 vradio 15 1 0 3 empty empty empty 0 -8 0 10 -262144
-1 -1 1;
#X floatatom 180 264 5 0 0 0 - - -, f 5;
#X obj 368 226 vradio 15 1 0 2 empty empty empty 0 -8 0 10 -262144
-1 -1 0;
#X floatatom 368 261 5 0 0 0 - - -, f 5;
#X msg 180 285 depth_mode \$1;
#X text 201 243 11bit raw;
#X text 503 52 set depth output colorspace;
#X text 171 195 set output formats;
#X text 201 227 mm aligned to rgb (16 bit);
#X text 201 213 mm unaligned (16 bit);
#X msg 368 282 video_mode \$1;
#X text 388 224 RGB;
#X text 387 240 IR;
#X obj 18 256 s \$0-prop;
#X obj 179 166 s \$0-prop;
#X obj 499 169 s \$0-prop;
#X obj 180 314 s \$0-prop;
#X obj 484 220 vradio 15 1 0 3 empty empty empty 0 -8 0 10 -262144
-1 -1 1;
#X floatatom 484 268 5 0 0 0 - - -, f 5;
#X msg 484 287 resolution \$1;
#X text 504 234 MEDIUM (default);
#X text 481 197 RGB RESOLUTION;
#X text 504 249 HIGH (restart rgb stream!);
#X text 504 219 LOW (not displaying correctly);
#X msg 106 314 1;
#X text 444 313 HIGH Resolution IR works just if depth stream is shut
down!!;
#X obj 107 288 r B;
#X msg 80 48 20;
#X text 105 49 ground;
#X obj 115 24 r CamAngle;
#X connect 1 0 49 0;
#X connect 2 0 3 0;
#X connect 3 0 1 0;
#X connect 4 0 49 0;
#X connect 5 0 6 0;
#X connect 6 0 4 0;
#X connect 7 0 5 0;
#X connect 15 0 16 0;
#X connect 16 0 19 0;
#X connect 17 0 18 0;
#X connect 18 0 20 0;
#X connect 19 0 50 0;
#X connect 20 0 50 0;
#X connect 24 0 25 0;
#X connect 25 0 26 0;
#X connect 26 0 51 0;
#X connect 36 0 37 0;
#X connect 37 0 40 0;
#X connect 38 0 39 0;
#X connect 39 0 46 0;
#X connect 40 0 52 0;
#X connect 46 0 52 0;
#X connect 53 0 54 0;
#X connect 54 0 55 0;
#X connect 55 0 52 0;
#X connect 60 0 36 0;
#X connect 62 0 60 0;
#X connect 63 0 5 0;
#X connect 65 0 5 0;
#X restore 2 14 pd properties;
#X text 312 74 gemhead for rgb;
#X text 432 73 and for depth;
#X text 319 155 rgb;
#X msg 242 125 info;
#X obj 240 35 r \$0-prop;
#X obj 304 133 pix_freenect A00367816982042A 1 1;
#X obj 486 208 tgl 15 0 empty empty mode 17 7 0 10 -262144 -1 -1 1
1;
#X obj 422 211 tgl 15 0 empty empty on/off 17 7 0 10 -262144 -1 -1
1 1;
#X obj 491 249 nbx 5 14 -1e+37 1e+37 0 0 empty empty hi_thresh 0 -8
0 10 -262144 -1 -1 2128.51 256;
#X obj 401 272 pix_depth2rgba 5000 100;
#X obj 555 247 nbx 5 14 -1e+37 1e+37 0 0 empty empty lo_thresh 0 -8
0 10 -262144 -1 -1 1004.02 256;
#N canvas 128 461 569 230 thresholds 0;
#X obj 69 177 outlet;
#X msg 31 63 lo_thresh \$1;
#X msg 69 109 hi_thresh \$1;
#X floatatom 31 46 5 0 0 0 - - -, f 5;
#X floatatom 69 92 5 0 0 0 - - -, f 5;
#X text 72 17 low threshold default to 10.1;
#X text 109 89 same as third inlet \, set by arg \, default 8000;
#X text 162 186 pixel which are out of bounds are zeroes;
#X text 163 149 this normalizes the color gradient from lo_thresh to
hi_thresh;
#X text 89 33 same as fourth inlet \, set by second creation arg;
#X connect 1 0 0 0;
#X connect 2 0 0 0;
#X connect 3 0 1 0;
#X connect 4 0 2 0;
#X restore 299 238 pd thresholds;
#X obj 304 54 tgl 15 0 empty empty empty 17 7 0 10 -262144 -1 -1 0
1;
#X obj 425 55 tgl 15 0 empty empty empty 17 7 0 10 -262144 -1 -1 0
1;
#X text 409 154 Depth;
#X obj 399 296 s Dimg;
#X obj 304 176 s RGBimg;
#X text 226 106 get serial;
#X obj 425 93 gemhead 52;
#X msg 482 179 1;
#X msg 555 155 4000;
#X msg 598 155 2000;
#X obj 421 11 tgl 15 0 empty empty empty 17 7 0 10 -262144 -1 -1 0
1;
#X msg 579 182 0;
#X msg 538 183 10000;
#X obj 559 64 r B;
#X obj 168 32 vsl 15 250 0 10000 0 0 empty maxDist-r empty 0 -9 0 10
-262144 -1 -1 5300 1;
#X obj 199 33 vsl 15 250 0 10000 0 0 empty minDist-r empty 0 -9 0 10
-262144 -1 -1 2500 1;
#X obj 97 90 vsl 15 128 -30 30 0 0 empty empty empty 0 -9 0 10 -262144
-1 -1 6083 1;
#X msg 47 65 0;
#X msg 82 64 20;
#X text 107 65 ground;
#X obj 64 246 s CamAngle;
#X obj 232 298 nbx 5 14 -1e+37 1e+37 0 0 empty minDist-r empty 0 -8
0 10 -262144 -1 -1 1004.02 256;
#X obj 170 298 nbx 5 14 -1e+37 1e+37 0 0 empty maxDist-r empty 0 -8
0 10 -262144 -1 -1 2128.51 256;
#X connect 0 0 7 0;
#X connect 5 0 7 0;
#X connect 6 0 7 0;
#X connect 7 0 18 0;
#X connect 7 1 11 0;
#X connect 8 0 11 1;
#X connect 9 0 11 0;
#X connect 10 0 11 2;
#X connect 11 0 17 0;
#X connect 12 0 11 3;
#X connect 13 0 11 0;
#X connect 14 0 0 0;
#X connect 15 0 20 0;
#X connect 20 0 7 1;
#X connect 21 0 9 0;
#X connect 21 0 8 0;
#X connect 22 0 10 0;
#X connect 23 0 12 0;
#X connect 24 0 14 0;
#X connect 24 0 15 0;
#X connect 25 0 12 0;
#X connect 26 0 10 0;
#X connect 27 0 26 0;
#X connect 27 0 25 0;
#X connect 27 0 21 0;
#X connect 28 0 10 0;
#X connect 29 0 12 0;
#X connect 30 0 34 0;
#X connect 31 0 30 0;
#X connect 32 0 30 0;
#X restore 18 39 pd kinect;
#N canvas 452 73 456 605 detection 0;
#X obj 101 445 pix_texture;
#X obj 101 514 rectangle 5.33 4;
#X obj 39 108 r RGBimg;
#X floatatom 247 140 5 0 1 1 pass - -, f 5;
#X floatatom 262 160 5 0 1 1 other - -, f 5;
#X obj 233 234 pix_alpha;
#X msg 276 185 1 1 1;
#X obj 69 150 alpha;
#X msg 341 98 \$1 \$1 \$1;
#X msg 291 209 0.01 0.01 0.01;
#X floatatom 342 69 5 0 0 0 - - -, f 5;
#X obj 110 282 pix_mask;
#X obj 136 7 r Dimg;
#X floatatom 215 455 5 0 0 0 - - -, f 5;
#X obj 136 128 pix_gain;
#X obj 136 31 pix_gray;
#X msg 191 69 4;
#X obj 165 194 pix_rgba;
#X obj 140 337 pix_flip;
#X msg 216 310 horizontal;
#X obj 101 482 translateXYZ 0 0 0.65;
#X obj 133 361 pix_delay;
#X obj 277 390 * 12;
#X floatatom 323 395 5 0 0 0 - - -, f 5;
#X msg 219 332 none;
#X obj 191 48 r B;
#X floatatom 190 92 5 0 0 0 - - -, f 5;
#X connect 0 0 20 0;
#X connect 2 0 7 0;
#X connect 3 0 5 1;
#X connect 4 0 5 2;
#X connect 5 0 11 1;
#X connect 6 0 5 3;
#X connect 7 0 11 0;
#X connect 8 0 5 3;
#X connect 9 0 5 4;
#X connect 10 0 8 0;
#X connect 11 0 18 0;
#X connect 12 0 15 0;
#X connect 13 0 20 3;
#X connect 14 0 17 0;
#X connect 15 0 14 0;
#X connect 16 0 26 0;
#X connect 17 0 5 0;
#X connect 18 0 21 0;
#X connect 19 0 18 0;
#X connect 20 0 1 0;
#X connect 21 0 0 0;
#X connect 22 0 21 1;
#X connect 23 0 22 0;
#X connect 24 0 18 0;
#X connect 25 0 16 0;
#X connect 26 0 14 1;
#X restore 17 71 pd detection;
#X obj 110 72 gemwin;
#X msg 135 42 0 \, destroy;
#N canvas 540 135 660 276 init 0;
#X obj 55 11 loadbang;
#X obj 55 39 s B;
#X obj 129 11 zexy;
#X obj 11 8 inlet;
#X connect 0 0 1 0;
#X connect 3 0 1 0;
#X restore 18 117 pd init;
#X obj 18 94 bng 15 250 50 0 empty empty empty 17 7 0 10 -262144 -1
-1;
#N canvas 49 85 645 656 cenarios 0;
#X obj 351 125 textfile;
#X msg 309 18 read cenarios.txt \, rewind;
#X obj 18 217 pix_texture;
#X obj 18 240 rectangle 5.33 4;
#X obj 18 27 tgl 15 0 empty empty empty 17 7 0 10 -262144 -1 -1 0 1
;
#X obj 8 529 pix_texture;
#X obj 57 435 tgl 15 0 empty empty empty 17 7 0 10 -262144 -1 -1 0
1;
#X floatatom 131 390 5 0 0 0 - - -, f 5;
#X obj 8 296 tgl 15 0 empty empty empty 17 7 0 10 -262144 -1 -1 0 1
;
#X obj 8 319 gemhead 48;
#X floatatom 90 390 5 0 0 0 - - -, f 5;
#X obj 8 436 alpha;
#X obj 18 47 gemhead 49;
#X floatatom 49 390 5 0 0 0 - - -, f 5;
#X obj 18 102 translateXYZ 0 0 0;
#X floatatom 107 67 5 0 0 0 - - -, f 5;
#X obj 49 368 / 100;
#X floatatom 49 349 5 0 0 0 - - -, f 5;
#X obj 90 368 / 100;
#X floatatom 90 349 5 0 0 0 - - -, f 5;
#X obj 8 508 pix_image ./Cenarios/front_canyon.tif;
#X obj 20 458 r FrontImage;
#X obj 38 131 r BackImage;
#X text 38 26 Background;
#X text 25 296 Foreground;
#X obj 18 194 pix_image ./Cenarios/At-Grand-Canyon.jpg;
#X obj 351 235 t a b;
#X obj 378 271 tgl 15 0 empty empty empty 17 7 0 10 -262144 -1 -1 0
1;
#X obj 351 300 demux;
#X obj 378 343 s BackImage;
#X obj 351 378 s FrontImage;
#X obj 38 156 prepend open;
#X obj 20 481 prepend open;
#X floatatom 83 571 5 0 0 0 - - -, f 5;
#X floatatom 45 571 5 0 0 0 - - -, f 5;
#X obj 8 410 translateXYZ 0 0 1;
#X obj 8 590 rectangle 4 3, f 12;
#X msg 409 248 0;
#X obj 389 79 t b b b;
#X obj 390 51 bng 15 250 50 0 empty empty empty 17 7 0 10 -262144 -1
-1;
#X obj 520 49 + 1;
#X obj 520 27 f -1;
#X obj 348 153 t b a, f 7;
#X msg 559 7 -1;
#X obj 520 71 mod 8;
#X obj 390 195 sel 7;
#N canvas 1 54 450 300 CenariosTamanho 0;
#X obj 313 138 + 1;
#X obj 313 116 f -1;
#X obj 174 227 textfile;
#X msg 352 96 -1;
#X msg 117 143 read cenarios.txt \, rewind;
#X obj 273 73 metro 1;
#X msg 221 259 0;
#X obj 274 181 b;
#X obj 172 184 bng 15 250 50 0 empty empty empty 17 7 0 10 -262144
-1 -1;
#X obj 273 46 t b b b;
#X obj 273 14 inlet;
#X obj 323 216 outlet;
#X connect 0 0 7 0;
#X connect 0 0 1 1;
#X connect 0 0 11 0;
#X connect 1 0 0 0;
#X connect 2 1 6 0;
#X connect 3 0 1 1;
#X connect 4 0 2 0;
#X connect 5 0 1 0;
#X connect 6 0 5 0;
#X connect 7 0 2 0;
#X connect 8 0 2 0;
#X connect 9 0 5 0;
#X connect 9 1 3 0;
#X connect 9 2 4 0;
#X connect 10 0 9 0;
#X restore 483 157 pd CenariosTamanho;
#X obj 483 133 bng 15 250 50 0 empty empty empty 17 7 0 10 -262144
-1 -1;
#X floatatom 483 181 5 0 0 0 - - -, f 5;
#X obj 483 200 t f f;
#X obj 483 221 - 1;
#X obj 504 105 loadbang;
#X obj 385 -15 metro 120000;
#X obj 388 -49 tgl 15 0 empty empty empty 17 7 0 10 -262144 -1 -1 1
1;
#X obj 413 -45 loadbang;
#X floatatom 579 90 5 0 0 0 - - -, f 5;
#X obj 293 -24 r cenarioBang;
#X connect 0 0 42 0;
#X connect 1 0 0 0;
#X connect 2 0 3 0;
#X connect 4 0 12 0;
#X connect 5 0 36 0;
#X connect 6 0 11 1;
#X connect 7 0 35 3;
#X connect 8 0 9 0;
#X connect 9 0 35 0;
#X connect 10 0 35 2;
#X connect 11 0 20 0;
#X connect 12 0 14 0;
#X connect 13 0 35 1;
#X connect 14 0 25 0;
#X connect 15 0 14 1;
#X connect 16 0 13 0;
#X connect 17 0 16 0;
#X connect 18 0 10 0;
#X connect 19 0 18 0;
#X connect 20 0 5 0;
#X connect 21 0 32 0;
#X connect 22 0 31 0;
#X connect 25 0 2 0;
#X connect 26 0 28 0;
#X connect 26 1 27 0;
#X connect 27 0 28 1;
#X connect 28 0 30 0;
#X connect 28 1 29 0;
#X connect 31 0 25 0;
#X connect 32 0 20 0;
#X connect 33 0 36 2;
#X connect 34 0 36 1;
#X connect 35 0 11 0;
#X connect 37 0 27 0;
#X connect 38 0 0 0;
#X connect 38 1 0 0;
#X connect 39 0 38 0;
#X connect 40 0 44 0;
#X connect 41 0 40 0;
#X connect 42 0 41 0;
#X connect 42 1 26 0;
#X connect 43 0 41 1;
#X connect 44 0 41 1;
#X connect 44 0 45 0;
#X connect 44 0 55 0;
#X connect 45 0 1 0;
#X connect 46 0 48 0;
#X connect 47 0 46 0;
#X connect 48 0 49 0;
#X connect 49 0 50 0;
#X connect 49 1 44 1;
#X connect 50 0 45 1;
#X connect 51 0 47 0;
#X connect 52 0 39 0;
#X connect 53 0 52 0;
#X connect 54 0 53 0;
#X connect 56 0 39 0;
#X restore 19 16 pd cenarios;
#X msg 110 18 dimen 640 480 \, fps 30 \, create \, 1;
#X obj 415 15 vsl 30 250 0 10000 0 0 minDist-r empty empty 0 -9 0 10
-262144 -1 -1 2500 1;
#X obj 348 15 vsl 30 250 0 10000 0 0 maxDist-r empty empty 0 -9 0 10
-262144 -1 -1 5300 1;
#X obj 413 277 nbx 5 14 -1e+37 1e+37 0 0 empty minDist-r empty 0 -8
0 10 -262144 -1 -1 1004.02 256;
#X obj 348 277 nbx 5 14 -1e+37 1e+37 0 0 empty maxDist-r empty 0 -8
0 10 -262144 -1 -1 2128.51 256;
#X text 346 295 MaxD;
#X text 414 295 MinD;
#X obj 128 125 bng 15 250 50 0 empty empty empty 17 7 0 10 -262144
-1 -1;
#X obj 128 147 s cenarioBang;
#X connect 3 0 2 0;
#X connect 5 0 4 0;
#X connect 7 0 2 0;
#X connect 14 0 15 0;
