#N canvas 525 305 254 157 10;
#X obj 8 6 zexy;
#N canvas 642 239 647 354 kin 0;
#X obj 304 93 gemhead;
#N canvas 1 209 844 360 properties 0;
#X obj 13 46 cnv 15 140 220 empty empty empty 20 12 0 14 -204800 -66577
0;
#X msg 18 230 led \$1;
#X obj 18 111 vradio 15 1 0 6 empty empty empty 0 -8 0 10 -262144 -1
-1 3;
#X floatatom 18 207 5 0 0 0 - - -, f 5;
#X msg 95 230 angle \$1;
#X obj 95 75 vsl 15 128 -30 30 0 0 empty empty empty 0 -9 0 10 -262144
-1 -1 0 1;
#X floatatom 95 211 5 0 0 0 - - -, f 5;
#X msg 45 49 0;
#X text 34 125 GREEN;
#X text 35 109 OFF;
#X text 34 141 RED;
#X text 34 156 YELLOW;
#X text 34 171 BLINK_GR;
#X text 34 185 BLINK_R_Y;
#X obj 168 48 cnv 15 320 120 empty empty empty 20 12 0 14 -4034 -66577
0;
#X obj 179 85 vradio 15 1 0 2 empty empty empty 0 -8 0 10 -262144 -1
-1 0;
#X floatatom 179 120 5 0 0 0 - - -, f 5;
#X obj 244 86 vradio 15 1 0 2 empty empty empty 0 -8 0 10 -262144 -1
-1 1;
#X floatatom 244 121 5 0 0 0 - - -, f 5;
#X msg 179 141 rgb \$1;
#X msg 244 142 depth \$1;
#X text 171 48 activate/deactivate streams;
#X text 173 62 save cpu power by just activating necessary streams!
;
#X obj 496 49 cnv 15 315 120 empty empty empty 20 12 0 14 -232576 -66577
0;
#X obj 499 88 vradio 15 1 0 2 empty empty empty 0 -8 0 10 -262144 -1
-1 0;
#X floatatom 499 123 5 0 0 0 - - -, f 5;
#X msg 499 143 depth_output \$1;
#X text 646 111 b = 0 \, a = 0;
#X text 21 4 properties for pix_freenect;
#X text 517 26 DEPTH OUTPUT;
#X text 190 27 STREAMS;
#X text 36 27 LED \, ANGLE;
#X text 645 98 r->3 msbits \, g ->8 lsbits;
#X text 518 101 Raw YUV (2 bytes) |;
#X text 518 86 Raw RGBA -> 11 bit output in r&g channel;
#X obj 168 192 cnv 15 520 120 empty empty empty 20 12 0 14 -261682
-66577 0;
#X obj 180 215 vradio 15 1 0 3 empty empty empty 0 -8 0 10 -262144
-1 -1 1;
#X floatatom 180 264 5 0 0 0 - - -, f 5;
#X obj 368 226 vradio 15 1 0 2 empty empty empty 0 -8 0 10 -262144
-1 -1 0;
#X floatatom 368 261 5 0 0 0 - - -, f 5;
#X msg 180 285 depth_mode \$1;
#X text 201 243 11bit raw;
#X text 503 52 set depth output colorspace;
#X text 171 195 set output formats;
#X text 201 227 mm aligned to rgb (16 bit);
#X text 201 213 mm unaligned (16 bit);
#X msg 368 282 video_mode \$1;
#X text 388 224 RGB;
#X text 387 240 IR;
#X obj 18 256 s \$0-prop;
#X obj 179 166 s \$0-prop;
#X obj 499 169 s \$0-prop;
#X obj 180 314 s \$0-prop;
#X obj 484 220 vradio 15 1 0 3 empty empty empty 0 -8 0 10 -262144
-1 -1 1;
#X floatatom 484 268 5 0 0 0 - - -, f 5;
#X msg 484 287 resolution \$1;
#X text 504 234 MEDIUM (default);
#X text 481 197 RGB RESOLUTION;
#X text 504 249 HIGH (restart rgb stream!);
#X text 504 219 LOW (not displaying correctly);
#X msg 106 314 1;
#X text 444 313 HIGH Resolution IR works just if depth stream is shut
down!!;
#X obj 107 288 r B;
#X msg 80 48 20;
#X text 105 49 ground;
#X connect 1 0 49 0;
#X connect 2 0 3 0;
#X connect 3 0 1 0;
#X connect 4 0 49 0;
#X connect 5 0 6 0;
#X connect 6 0 4 0;
#X connect 7 0 5 0;
#X connect 15 0 16 0;
#X connect 16 0 19 0;
#X connect 17 0 18 0;
#X connect 18 0 20 0;
#X connect 19 0 50 0;
#X connect 20 0 50 0;
#X connect 24 0 25 0;
#X connect 25 0 26 0;
#X connect 26 0 51 0;
#X connect 36 0 37 0;
#X connect 37 0 40 0;
#X connect 38 0 39 0;
#X connect 39 0 46 0;
#X connect 40 0 52 0;
#X connect 46 0 52 0;
#X connect 53 0 54 0;
#X connect 54 0 55 0;
#X connect 55 0 52 0;
#X connect 60 0 36 0;
#X connect 62 0 60 0;
#X connect 63 0 5 0;
#X restore 304 24 pd properties;
#X text 312 74 gemhead for rgb;
#X text 432 73 and for depth;
#X text 319 155 rgb;
#X msg 242 125 info;
#X obj 240 35 r \$0-prop;
#X obj 304 133 pix_freenect A00367816982042A 1 1;
#X obj 486 208 tgl 15 0 empty empty mode 17 7 0 10 -262144 -1 -1 0
1;
#X obj 422 211 tgl 15 0 empty empty on/off 17 7 0 10 -262144 -1 -1
0 1;
#X obj 491 249 nbx 5 14 -1e+37 1e+37 0 0 empty empty hi_thresh 0 -8
0 10 -262144 -1 -1 0 256;
#X obj 401 272 pix_depth2rgba 5000 100;
#X obj 555 247 nbx 5 14 -1e+37 1e+37 0 0 empty empty lo_thresh 0 -8
0 10 -262144 -1 -1 0 256;
#N canvas 128 461 569 230 thresholds 0;
#X obj 69 177 outlet;
#X msg 31 63 lo_thresh \$1;
#X msg 69 109 hi_thresh \$1;
#X floatatom 31 46 5 0 0 0 - - -, f 5;
#X floatatom 69 92 5 0 0 0 - - -, f 5;
#X text 72 17 low threshold default to 10.1;
#X text 109 89 same as third inlet \, set by arg \, default 8000;
#X text 162 186 pixel which are out of bounds are zeroes;
#X text 163 149 this normalizes the color gradient from lo_thresh to
hi_thresh;
#X text 89 33 same as fourth inlet \, set by second creation arg;
#X connect 1 0 0 0;
#X connect 2 0 0 0;
#X connect 3 0 1 0;
#X connect 4 0 2 0;
#X restore 299 238 pd thresholds;
#X obj 304 54 tgl 15 0 empty empty empty 17 7 0 10 -262144 -1 -1 0
1;
#X obj 425 55 tgl 15 0 empty empty empty 17 7 0 10 -262144 -1 -1 0
1;
#X text 409 154 Depth;
#X obj 399 296 s Dimg;
#X obj 304 176 s RGBimg;
#X text 226 106 get serial;
#X obj 15 20 cnv 15 180 180 empty empty empty 20 12 0 14 -233017 -66577
0;
#X obj 34 63 gemwin;
#X msg 34 31 dimen 640 480 \, create \, 1;
#X msg 86 63 0 \, destroy;
#N canvas 145 191 492 495 showDmouse 0;
#X obj 17 44 gemhead;
#X obj 21 325 translateXYZ 0 0 0.0001;
#X obj 268 273 pix_data;
#X floatatom 78 82 5 0 1 0 X - -, f 5;
#X floatatom 127 84 5 0 1 0 Y - -, f 5;
#X obj 78 106 t f f;
#X obj 128 107 t f f;
#X floatatom 349 333 5 0 0 0 - - -, f 5;
#X obj 239 336 unpack f f f;
#X floatatom 219 356 5 0 0 0 - - -, f 5;
#X floatatom 257 357 8 0 0 0 - - -, f 8;
#X floatatom 315 359 5 0 0 0 - - -, f 5;
#X obj 287 84 metro 200;
#X obj 288 64 tgl 15 0 empty empty empty 17 7 0 10 -262144 -1 -1 0
1;
#X obj 117 42 gemmouse;
#X obj 67 229 expr $f1*10.66/640 - 5.33;
#X obj 41 252 expr 4 - $f1*8/480;
#X obj 289 380 * 256;
#X obj 219 380 * 65536;
#X obj 219 410 +;
#X text 328 379 second and first 8 bits;
#X obj 222 435 / 1000;
#X msg 41 379 text \$1;
#X obj 208 73 sel 1;
#X obj 168 74 sel 1;
#X msg 207 103 0;
#X obj 78 412 r sz;
#X obj 20 410 text2d;
#X obj 312 189 expr $f1/640;
#X obj 319 217 expr 1 - $f1/480;
#X text 246 407 depthmode 1;
#X obj 221 456 s Dmouse;
#X obj 43 356 r Dmouse;
#X msg 172 98 1;
#X obj 183 124 s showDmouse-r;
#X obj 211 7 r showDmouse-r;
#X msg 18 437 font StopIt.tth;
#X obj 303 139 r Dimg;
#X connect 0 0 1 0;
#X connect 1 0 27 0;
#X connect 2 1 8 0;
#X connect 2 2 7 0;
#X connect 3 0 5 0;
#X connect 4 0 6 0;
#X connect 5 0 15 0;
#X connect 5 1 28 0;
#X connect 6 0 16 0;
#X connect 6 1 29 0;
#X connect 8 0 9 0;
#X connect 8 1 10 0;
#X connect 8 2 11 0;
#X connect 9 0 18 0;
#X connect 10 0 17 0;
#X connect 12 0 2 0;
#X connect 13 0 12 0;
#X connect 14 0 3 0;
#X connect 14 1 4 0;
#X connect 14 2 24 0;
#X connect 14 4 23 0;
#X connect 15 0 1 1;
#X connect 16 0 1 2;
#X connect 17 0 19 1;
#X connect 18 0 19 0;
#X connect 19 0 21 0;
#X connect 21 0 31 0;
#X connect 22 0 27 0;
#X connect 23 0 25 0;
#X connect 24 0 33 0;
#X connect 25 0 34 0;
#X connect 26 0 27 1;
#X connect 28 0 2 2;
#X connect 29 0 2 3;
#X connect 32 0 22 0;
#X connect 33 0 34 0;
#X connect 35 0 0 0;
#X connect 35 0 13 0;
#X connect 36 0 27 0;
#X connect 37 0 2 1;
#X restore 27 122 pd showDmouse;
#X obj 121 120 bng 50 250 50 0 bdata bdata-r Bang_D 5 30 0 10 -204786
-1 -1;
#N canvas 548 131 660 276 init 0;
#X obj 101 15 table coorX;
#X obj 187 15 table coorY;
#X obj 274 16 table valD;
#X obj 35 11 loadbang;
#X obj 6 11 s B;
#X msg 12 44 \; showDmouse-r 0 \; sz 15 \; coorX resize 13 \; coorX
0 0.038 0.115 0.192 0.269 0.346 0.423 0.5 0.577 0.654 0.731 0.807 0.884
0.961 \; coorX bounds 0 0 12 1 \; coorY resize 7 \; coorY 0 0.071 0.214
0.357 0.5 0.642 0.786 0.928 \; coorY bounds 0 0 6 1 \; valD resize
91 \; valD bounds 0 5 91 0 \;, f 86;
#X connect 3 0 4 0;
#X connect 3 0 5 0;
#X restore 33 91 pd init;
#X obj 18 221 tgl 50 0 go empty OnOff 1 -7 0 16 -257985 -1 -1 0 1;
#X msg 579 182 1000;
#X msg 538 183 2000;
#X obj 425 93 gemhead 52;
#X obj 558 64 r BB;
#X msg 482 179 1;
#X msg 555 155 4000;
#X msg 598 155 2000;
#X connect 0 0 7 0;
#X connect 5 0 7 0;
#X connect 6 0 7 0;
#X connect 7 0 18 0;
#X connect 7 1 11 0;
#X connect 8 0 11 1;
#X connect 9 0 11 0;
#X connect 10 0 11 2;
#X connect 11 0 17 0;
#X connect 12 0 11 3;
#X connect 13 0 11 0;
#X connect 14 0 0 0;
#X connect 15 0 30 0;
#X connect 22 0 21 0;
#X connect 23 0 21 0;
#X connect 28 0 12 0;
#X connect 29 0 10 0;
#X connect 30 0 7 1;
#X connect 31 0 29 0;
#X connect 31 0 28 0;
#X connect 31 0 32 0;
#X connect 32 0 9 0;
#X connect 32 0 8 0;
#X connect 33 0 10 0;
#X connect 34 0 12 0;
#X restore 50 41 pd kin;
#N canvas 443 80 701 668 eff 0;
#X obj 432 301 r RGBimg;
#X obj 414 540 pix_texture;
#X obj 414 577 translateXYZ 0 0 0;
#X obj 414 609 rectangle 5.33 4;
#X obj 531 371 hsl 128 15 0 150 0 0 empty empty empty -2 -8 0 10 -262144
-1 -1 0 1;
#X obj 433 356 pix_rgba;
#X floatatom 550 400 5 0 0 0 - - -, f 5;
#X obj 609 523 timer;
#X floatatom 608 558 5 0 0 0 - - -, f 5;
#X floatatom 538 339 5 0 0 0 - - -, f 5;
#X obj 612 489 sel 1 0;
#X obj 616 457 tgl 15 0 empty empty empty 17 7 0 10 -262144 -1 -1 0
1;
#X text 552 422 20 frames approx 1 sec;
#X obj 43 615 text2d;
#X msg 66 542 font StopIt.ttf;
#X obj 416 506 spigot;
#X obj 476 507 tgl 15 0 empty empty empty 17 7 0 10 -262144 -1 -1 0
1;
#X obj 42 214 gemhead 51;
#X obj 50 280 separator;
#X obj 61 418 translateXYZ;
#X floatatom 77 595 5 0 0 0 - - -, f 5;
#X floatatom 93 453 5 0 0 0 - - -, f 5;
#X floatatom 139 456 5 0 0 0 - - -, f 5;
#X floatatom 180 457 5 0 0 0 - - -, f 5;
#X floatatom 217 458 5 0 0 0 - - -, f 5;
#X obj 51 312 alpha;
#X obj 51 338 pix_rgba;
#X obj 41 191 tgl 15 0 empty empty empty 17 7 0 10 -262144 -1 -1 0
1;
#X obj 421 432 pix_delay 2000;
#X obj 172 495 r BB;
#X msg 69 570 text hey sei alla;
#X obj 188 634 text2d;
#X msg 211 561 font StopIt.ttf;
#X floatatom 245 633 5 0 0 0 - - -, f 5;
#X msg 214 589 text CASA SULL'ALBERO;
#X obj 185 533 translateXYZ 0 -1 0;
#X obj 139 321 random 100;
#X obj 207 321 random 100;
#X floatatom 243 343 5 0 0 0 - - -, f 5;
#X floatatom 272 383 5 0 0 0 - - -, f 5;
#X obj 54 487 colorRGB 1 -1 1 1;
#X msg 172 420 0.5;
#X obj 64 238 t a b b a b;
#N canvas 1 79 320 279 change_backg 0;
#X obj 203 218 outlet;
#X obj 183 167 line;
#X obj 206 92 delay 1000;
#X obj 149 48 t b b;
#X obj 122 49 bng 15 250 50 0 empty empty empty 17 7 0 10 -262144 -1
-1;
#X msg 156 95 1 1000;
#X msg 206 116 0 1000;
#X obj 39 88 metro 2000;
#X obj 39 60 tgl 15 0 empty empty empty 17 7 0 10 -262144 -1 -1 0 1
;
#X obj 40 15 r BB;
#X msg 44 40 1;
#X connect 1 0 0 0;
#X connect 2 0 6 0;
#X connect 3 0 5 0;
#X connect 3 1 2 0;
#X connect 4 0 3 0;
#X connect 5 0 1 0;
#X connect 6 0 1 0;
#X connect 7 0 4 0;
#X connect 8 0 7 0;
#X connect 9 0 10 0;
#X connect 10 0 8 0;
#X restore 206 242 pd change_backg;
#X obj 204 270 colorRGB 0 1 1 1;
#X obj 169 368 / 2000;
#X obj 217 366 / 2000;
#X obj 152 21 r click;
#X obj 421 476 colorRGB;
#X obj 426 392 alpha;
#X obj 351 398 vsl 30 70 0 1 0 0 empty empty empty 0 -9 0 10 -262144
-1 -1 0 1;
#X msg 234 148 0;
#X obj 366 190 line;
#X msg 379 151 0;
#X obj 284 124 t b b b b;
#X msg 322 151 1 1000;
#X obj 283 97 spigot;
#X msg 326 76 0;
#X msg 150 78 1;
#X obj 316 50 delay 10;
#X obj 242 118 bng 15 250 50 0 empty empty empty 17 7 0 10 -262144
-1 -1;
#X obj 205 294 rectangle 5.333 4;
#X obj 212 23 bng 15 250 50 0 empty empty empty 17 7 0 10 -262144 -1
-1;
#X msg 107 617 80;
#X msg 235 612 90;
#X obj 237 22 t b b b;
#X obj 221 53 delay 7000;
#X connect 0 0 5 0;
#X connect 1 0 2 0;
#X connect 2 0 3 0;
#X connect 4 0 6 0;
#X connect 4 0 28 1;
#X connect 5 0 49 0;
#X connect 7 0 8 0;
#X connect 9 0 4 0;
#X connect 10 0 7 0;
#X connect 10 1 7 1;
#X connect 11 0 10 0;
#X connect 14 0 13 0;
#X connect 15 0 1 0;
#X connect 16 0 15 1;
#X connect 17 0 42 0;
#X connect 18 0 25 0;
#X connect 19 0 40 0;
#X connect 20 0 13 1;
#X connect 21 0 40 1;
#X connect 22 0 40 2;
#X connect 23 0 40 3;
#X connect 24 0 40 4;
#X connect 25 0 26 0;
#X connect 26 0 19 0;
#X connect 27 0 17 0;
#X connect 28 0 48 0;
#X connect 29 0 14 0;
#X connect 29 0 30 0;
#X connect 29 0 41 0;
#X connect 29 0 63 0;
#X connect 29 0 64 0;
#X connect 29 0 34 0;
#X connect 30 0 13 0;
#X connect 32 0 31 0;
#X connect 33 0 31 1;
#X connect 34 0 31 0;
#X connect 35 0 31 0;
#X connect 36 0 45 0;
#X connect 37 0 46 0;
#X connect 38 0 45 1;
#X connect 38 0 46 1;
#X connect 39 0 19 3;
#X connect 40 0 13 0;
#X connect 40 0 35 0;
#X connect 41 0 19 3;
#X connect 42 0 18 0;
#X connect 42 1 36 0;
#X connect 42 2 37 0;
#X connect 42 3 44 0;
#X connect 43 0 44 2;
#X connect 44 0 61 0;
#X connect 45 0 19 1;
#X connect 46 0 19 2;
#X connect 47 0 65 0;
#X connect 48 0 15 0;
#X connect 49 0 28 0;
#X connect 50 0 48 4;
#X connect 51 0 27 0;
#X connect 52 0 50 0;
#X connect 53 0 52 0;
#X connect 54 0 51 0;
#X connect 54 1 55 0;
#X connect 54 2 53 0;
#X connect 55 0 52 0;
#X connect 56 0 54 0;
#X connect 57 0 56 1;
#X connect 58 0 56 1;
#X connect 58 0 27 0;
#X connect 59 0 57 0;
#X connect 60 0 54 0;
#X connect 62 0 65 0;
#X connect 63 0 13 1;
#X connect 64 0 31 1;
#X connect 65 0 59 0;
#X connect 65 1 56 0;
#X connect 65 2 66 0;
#X connect 66 0 58 0;
#X restore 50 109 pd eff;
#N canvas 16 78 380 550 det 0;
#X obj 167 209 pix_blob;
#X msg 193 172 4;
#X obj 221 172 r BB;
#X obj 236 243 vsl 40 128 0 0.5 0 0 empty empty size 0 -9 0 10 -4032
-1 -1 0 1;
#X obj 56 418 pix_texture;
#X obj 56 455 translateXYZ 0 0 0;
#X obj 56 487 rectangle 5.33 4;
#X obj 54 29 r Dimg;
#X msg 68 392 quality \$1;
#X obj 70 368 tgl 15 0 empty empty empty 17 7 0 10 -262144 -1 -1 0
1;
#X obj 96 132 t a a;
#X obj 111 93 pix_resize 3 7;
#X obj 52 55 demux;
#X obj 110 57 tgl 15 0 empty empty empty 17 7 0 10 -262144 -1 -1 0
1;
#X obj 135 162 pix_gray;
#X obj 59 346 spigot;
#X obj 118 346 tgl 15 0 empty empty empty 17 7 0 10 -262144 -1 -1 0
1;
#X text 134 345 check;
#X obj 120 299 r BB;
#X msg 120 322 0;
#X obj 218 408 >;
#X obj 289 245 vsl 40 128 0 0.5 0 0 empty empty thresh 0 -9 0 10 -260097
-1 -1 0 1;
#X obj 219 484 s click;
#X obj 266 433 tgl 15 0 empty empty empty 17 7 0 10 -262144 -1 -1 0
1;
#X floatatom 234 382 12 0 0 0 - - -, f 12;
#X obj 223 455 sel 1 0;
#X floatatom 331 397 5 0 0 0 - - -, f 5;
#X msg 277 209 0.06;
#X connect 0 0 15 0;
#X connect 0 3 20 0;
#X connect 0 3 3 0;
#X connect 1 0 0 1;
#X connect 2 0 1 0;
#X connect 3 0 24 0;
#X connect 4 0 5 0;
#X connect 5 0 6 0;
#X connect 7 0 12 0;
#X connect 8 0 4 0;
#X connect 9 0 8 0;
#X connect 10 1 14 0;
#X connect 11 0 10 0;
#X connect 12 0 10 0;
#X connect 12 1 11 0;
#X connect 13 0 12 1;
#X connect 14 0 0 0;
#X connect 15 0 4 0;
#X connect 16 0 15 1;
#X connect 18 0 19 0;
#X connect 19 0 16 0;
#X connect 20 0 23 0;
#X connect 20 0 25 0;
#X connect 21 0 20 1;
#X connect 21 0 26 0;
#X connect 25 0 22 0;
#X connect 27 0 21 0;
#X restore 50 73 pd det;
#N canvas 1 79 450 300 conn 0;
#X obj 54 206 netsend;
#X msg 54 29 connect localhost 2000;
#X obj 56 246 tgl 15 0 empty empty empty 17 7 0 10 -262144 -1 -1 0
1;
#X msg 69 55 disconnect;
#X obj 221 31 r click;
#X obj 236 65 print;
#X msg 220 97 send click;
#X connect 0 0 2 0;
#X connect 1 0 0 0;
#X connect 3 0 0 0;
#X connect 4 0 6 0;
#X connect 6 0 0 0;
#X restore 49 13 pd conn;
#X obj 168 82 loadbang;
#X obj 168 106 s BB;
#N canvas 1 54 427 216 RidMe 0;
#X text 297 149 Mick Mengucci \; LabIO2015;
#X text 30 20 This patch detects the change in size in an image that
corresponds to presence in a location between two distance limits from
the kinect. It works with the object pix_freenect from Matthias (https://github.com/kronihias/pix_freenect).
The presence triggers an effect in the video that shows the video (rgb
image) with a 5 seconds delay. After that the default screen returns.
;
#X restore 168 47 pd RidMe;
#X connect 5 0 6 0;
