#N canvas 646 294 559 338 10;
#X obj 206 26 vsl 50 250 0 10000 0 0 maxDist-android empty empty 0
-9 0 10 -262144 -1 -1 0 1;
#X obj 207 287 nbx 5 14 -1e+37 1e+37 0 0 empty maxDist-android empty
0 -8 0 10 -262144 -1 -1 0 256;
#X text 205 305 MaxD;
#N canvas 1 57 450 300 conn 1;
#X obj 108 179 netsend;
#X obj 110 223 tgl 15 0 empty empty empty 17 7 0 10 -262144 -1 -1 1
1;
#X msg 117 75 read ip.txt \, rewind \, bang;
#X obj 123 112 textfile;
#X obj 136 148 cyclone/prepend connect;
#X msg 208 203 disconnect;
#X obj 300 50 delay 1000;
#X obj 299 128 s CamAngle-android-set;
#X msg 305 105 0;
#X obj 176 240 outlet;
#X obj 146 3 inlet;
#X connect 0 0 1 0;
#X connect 0 0 9 0;
#X connect 2 0 3 0;
#X connect 3 0 4 0;
#X connect 4 0 0 0;
#X connect 5 0 0 0;
#X connect 6 0 8 0;
#X connect 8 0 7 0;
#X connect 10 0 2 0;
#X connect 10 0 6 0;
#X restore 27 82 pd conn;
#X obj 305 27 vsl 50 250 0 10000 0 0 minDist-android empty empty 0
-9 0 10 -262144 -1 -1 0 1;
#X obj 303 287 nbx 5 14 -1e+37 1e+37 0 0 empty minDist-android empty
0 -8 0 10 -262144 -1 -1 0 256;
#X text 304 305 MinD;
#X obj 401 77 vsl 50 200 -30 30 0 0 CamAngle-android CamAngle-android-set
empty 0 -9 0 10 -262144 -1 -1 9950 1;
#X obj 400 287 nbx 5 14 -1e+37 1e+37 0 0 empty CamAngle-android empty
0 -8 0 10 -262144 -1 -1 0 256;
#X text 399 304 CamAngle;
#X obj 400 18 bng 50 250 50 0 cenarioBang-android empty bang_scene
0 7 0 10 -262144 -1 -1;
#X obj 27 106 tgl 30 0 empty empty empty 17 7 0 10 -262144 -1 -1 0
1;
#X obj 25 21 bng 50 250 50 0 empty empty Connect 0 -10 0 10 -262144
-1 -1;
#X connect 3 0 11 0;
#X connect 12 0 3 0;
